<?xml version="1.0" encoding="utf-8"?>
<!-- Generator: Adobe Illustrator 24.1.1, SVG Export Plug-In . SVG Version: 6.00 Build 0)  -->
<svg version="1.1" id="Layer_1" xmlns="http://www.w3.org/2000/svg" xmlns:xlink="http://www.w3.org/1999/xlink" x="0px" y="0px"
	 width="54px" height="53px" viewBox="0 0 54 53" style="enable-background:new 0 0 54 53;" xml:space="preserve">
<style type="text/css">
	.st0{fill-rule:evenodd;clip-rule:evenodd;fill:#FFFFFF;}
</style>
<path class="st0" d="M53.6,49.6l-3.1,3.1C50.3,52.9,50,53,49.7,53c-0.3,0-0.6-0.1-0.8-0.3l-7.1-6.9c-0.4-0.4-0.4-1.1,0-1.6l0.8-0.8
	l-2.4-2.3c-2.2,1.8-4.9,2.8-7.8,2.8c-6.7,0-12.2-5.4-12.2-12c0-6.6,5.5-12,12.2-12c3.2,0,6.3,1.3,8.6,3.5c4.5,4.4,4.7,11.4,0.8,16.1
	l2.4,2.3l0.8-0.8c0.2-0.2,0.5-0.3,0.8-0.3s0.6,0.1,0.8,0.3l7.1,6.9C54.1,48.5,54.1,49.2,53.6,49.6z M42.4,31.9c0-2.6-1-5.1-2.9-6.9
	c-1.9-1.8-4.4-2.9-7-2.9c-5.5,0-10,4.4-10,9.8c0,5.4,4.5,9.8,10,9.8S42.4,37.3,42.4,31.9z M45.8,43.4L44.2,45l5.5,5.4l1.5-1.5
	L45.8,43.4z M32.6,26.5v-2.2c4.3,0,7.9,3.5,7.9,7.7h-2.2C38.2,29,35.7,26.5,32.6,26.5z M4.5,18.8h2.2V21H4.5V18.8z M6.7,25.4
	c0,0.6,0.5,1.1,1.1,1.1h2.2v2.2H7.9c-1.9,0-3.4-1.5-3.4-3.3v-2.2h2.2V25.4z M16.9,11c-0.5,0-1-0.1-1.4-0.3l-4.5,4.4l-1.6-1.6
	l4.5-4.4c-0.2-0.4-0.3-0.9-0.3-1.4c0-1.8,1.5-3.3,3.4-3.3c1.9,0,3.4,1.5,3.4,3.3c0,0.5-0.1,1-0.3,1.4l3.4,3.3
	c0.4-0.2,0.9-0.3,1.5-0.3c0.5,0,1,0.1,1.4,0.3l3.4-3.3c-0.2-0.4-0.3-0.9-0.3-1.4c0-1.8,1.5-3.3,3.4-3.3c1.9,0,3.4,1.5,3.4,3.3
	c0,1.8-1.5,3.3-3.4,3.3c-0.5,0-1-0.1-1.4-0.3L27.8,14c0.2,0.4,0.3,0.9,0.3,1.4c0,1.8-1.5,3.3-3.4,3.3c-1.9,0-3.4-1.5-3.4-3.3
	c0-0.5,0.1-1,0.3-1.4l-3.4-3.3C17.9,10.9,17.4,11,16.9,11z M16.9,6.6c-0.6,0-1.1,0.5-1.1,1.1s0.5,1.1,1.1,1.1S18,8.3,18,7.7
	S17.5,6.6,16.9,6.6z M33.7,7.7c0-0.6-0.5-1.1-1.1-1.1c-0.6,0-1.1,0.5-1.1,1.1s0.5,1.1,1.1,1.1C33.2,8.8,33.7,8.3,33.7,7.7z
	 M24.7,16.6c0.6,0,1.1-0.5,1.1-1.1s-0.5-1.1-1.1-1.1c-0.6,0-1.1,0.5-1.1,1.1S24.1,16.6,24.7,16.6z M42.7,3.3c0-0.6-0.5-1.1-1.1-1.1
	H3.4c-0.6,0-1.1,0.5-1.1,1.1v26.5c0,0.6,0.5,1.1,1.1,1.1H18v2.2h-2.2v4.4h4.5v2.2h-9v-2.2h2.2v-4.4H3.4c-1.9,0-3.4-1.5-3.4-3.3V3.3
	C0,1.5,1.5,0,3.4,0h38.2C43.5,0,45,1.5,45,3.3v19.9h-2.2V3.3z"/>
</svg>
